<svg width="162" height="162" viewBox="0 0 162 162" fill="none" xmlns="http://www.w3.org/2000/svg">
<circle cx="81" cy="81" r="80" fill="white" stroke="#FF9900" stroke-width="2" stroke-linecap="round" stroke-dasharray="1 6"/>
<path d="M115.766 53.7669H65.5938V51.7356H60.2235C61.2745 50.5983 62.1969 49.3239 62.9578 47.9268L57.6063 45.0122C55.3477 49.1594 51.0145 51.7356 46.2975 51.7356C41.5748 51.7356 37.2389 49.1547 34.982 45L29.6274 47.9088C30.3902 49.313 31.316 50.5935 32.3714 51.7356H27V54.7825C27 57.4707 29.187 59.6575 31.875 59.6575H34.1333L36.802 74.3355C37.4171 77.718 40.3589 80.1731 43.7968 80.1731H46.1527C49.5097 84.4969 53.7059 88.1497 58.4622 90.8748L61.0035 116.736H70.2697L74.8591 96.1841C76.3417 96.3429 77.8296 96.4231 79.3075 96.4231H106.587L107.988 100.849L106.021 116.736H115.717L124.906 89.5575V99.47H131V69.0013C131 60.601 124.166 53.7669 115.766 53.7669ZM49.7965 73.2453C49.7086 73.7286 49.2883 74.0794 48.7971 74.0794H43.7966C43.3055 74.0794 42.8852 73.7286 42.7972 73.2456L39.9947 57.8294H52.5992L49.7965 73.2453ZM124.906 70.5314L113.824 103.311L114.199 100.278L107.092 77.8317L101.283 79.6712L104.657 90.3296H79.3075C77.2212 90.3296 75.1097 90.1423 73.032 89.773L70.1606 89.2628L66.179 107.093L64.2078 87.0343L62.7441 86.2722C59.084 84.366 55.7751 81.8292 52.9801 78.8116C54.4156 77.7665 55.4542 76.1913 55.7915 74.3357L58.4234 59.8606H59.3395C59.7612 65.3712 63.5781 69.9468 68.6977 71.4899C70.4375 72.0144 71.8874 73.2521 72.5561 74.9416C73.9556 78.4779 77.4091 80.9856 81.4375 80.9856C85.4277 80.9856 88.854 78.5252 90.2787 75.0418C90.9907 73.3012 92.4806 72.0189 94.2882 71.5005C99.5989 69.9777 103.646 65.4362 104.448 59.8606H115.766C120.814 59.8606 124.906 63.953 124.906 69.0013V70.5314Z" fill="#FF9900"/>
<path d="M112.516 73.47C114.759 73.47 116.578 71.6512 116.578 69.4075C116.578 67.1638 114.759 65.345 112.516 65.345C110.272 65.345 108.453 67.1638 108.453 69.4075C108.453 71.6512 110.272 73.47 112.516 73.47Z" fill="#FF9900"/>
</svg>
