<svg width="162" height="162" viewBox="0 0 162 162" fill="none" xmlns="http://www.w3.org/2000/svg">
<circle cx="81" cy="81" r="80" fill="white" stroke="#FF9900" stroke-width="2" stroke-linecap="round" stroke-dasharray="1 6"/>
<path d="M125.246 40.7844H113.183C113.227 39.4483 113.252 38.1043 113.252 36.7539C113.252 35.2328 112.018 34 110.498 34H51.5024C49.982 34 48.7485 35.2328 48.7485 36.7539C48.7485 38.1043 48.7728 39.4483 48.8166 40.7844H36.7539C35.2328 40.7844 34 42.0172 34 43.5383C34 55.8778 37.2251 67.5195 43.0807 76.3198C48.8689 85.0197 56.5792 90.0097 64.9083 90.4952C66.7966 92.5499 68.7924 94.2252 70.8715 95.5032V107.743H66.2515C60.6663 107.743 56.123 112.287 56.123 117.872V122.491H55.9273C54.4062 122.491 53.1734 123.725 53.1734 125.245C53.1734 126.766 54.4062 127.999 55.9273 127.999H106.073C107.594 127.999 108.827 126.766 108.827 125.245C108.827 123.725 107.594 122.491 106.073 122.491H105.877V117.872C105.877 112.287 101.334 107.743 95.7485 107.743H91.1285V95.5032C93.2076 94.2259 95.2041 92.5499 97.0924 90.4952C105.421 90.0097 113.131 85.0197 118.92 76.3198C124.776 67.5195 128 55.8778 128 43.5383C128 42.0172 126.767 40.7844 125.246 40.7844ZM47.6663 73.269C42.8362 66.0106 39.9984 56.5168 39.5659 46.2922H49.1243C50.1175 58.8612 53.0679 70.4792 57.6793 79.7012C58.4137 81.17 59.1817 82.5577 59.9785 83.8643C55.398 82.1346 51.1588 78.5186 47.6663 73.269ZM100.369 117.872V122.492H61.6309V117.872C61.6309 115.324 63.7035 113.251 66.2515 113.251H95.7485C98.2965 113.251 100.369 115.324 100.369 117.872ZM85.6207 107.743H76.3793V97.8964C77.8932 98.2951 79.4359 98.5024 81 98.5024C82.5641 98.5024 84.1068 98.2951 85.6207 97.8964V107.743ZM87.3261 91.3444C87.202 91.3953 87.083 91.457 86.9689 91.5251C85.0226 92.4933 83.0224 92.9946 81 92.9946C78.9783 92.9946 76.9789 92.4933 75.0332 91.5265C74.9177 91.457 74.798 91.3953 74.6725 91.3429C72.5131 90.2012 70.424 88.4771 68.4482 86.2116C68.3442 86.0632 68.2273 85.9262 68.0975 85.8014C66.1361 83.4728 64.2908 80.6084 62.6055 77.2378C57.5445 67.1164 54.6213 53.808 54.2885 39.5078H107.711C107.378 53.808 104.455 67.1172 99.3945 77.2378C97.7092 80.6084 95.8639 83.4728 93.9032 85.8014C93.7727 85.9262 93.6543 86.0639 93.5511 86.2123C91.5753 88.4786 89.4855 90.2019 87.3261 91.3444ZM114.334 73.269C110.841 78.5186 106.602 82.1346 102.021 83.8643C102.818 82.5577 103.586 81.17 104.321 79.7012C108.932 70.4792 111.882 58.8612 112.876 46.2922H122.434C122.002 56.5168 119.164 66.0106 114.334 73.269Z" fill="#FF9900"/>
<path d="M94.2004 56.3434C93.9434 55.5539 93.2641 54.9848 92.4379 54.8563L85.8653 53.9016L82.9278 47.9531C82.5606 47.2188 81.8078 46.7414 80.9817 46.7414C80.1555 46.7414 79.4028 47.2188 79.0356 47.9531L76.0981 53.9016L69.5254 54.8563C68.6992 54.9664 68.0199 55.5539 67.7629 56.3434C67.5059 57.1328 67.7262 57.9957 68.3137 58.5649L73.0688 63.1914L71.9489 69.7274C71.802 70.5352 72.1508 71.3613 72.8117 71.857C73.4727 72.3528 74.3723 72.4078 75.1067 72.0223L80.9817 68.9379L86.8567 72.0223C87.1688 72.1875 87.5176 72.2793 87.8664 72.2793C88.3254 72.2793 88.766 72.1324 89.1516 71.857C89.8125 71.3613 90.1614 70.5535 90.0145 69.7274L88.8946 63.1914L93.6496 58.5649C94.2555 57.9957 94.4575 57.1145 94.2004 56.3434Z" fill="#FF9900"/>
</svg>
