<svg width="162" height="162" viewBox="0 0 162 162" fill="none" xmlns="http://www.w3.org/2000/svg">
<circle cx="81" cy="81" r="80" fill="white" stroke="#FF9900" stroke-width="2" stroke-linecap="round" stroke-dasharray="1 6"/>
<path d="M122 55C122 68.2336 111.233 78.9999 98 79.0001L83.0001 78.9999V68.4921L87.508 72.9999L95.9934 73.0001L83.2863 60.2934C83.6423 58.0067 84.3232 55.8267 85.2787 53.8002L103.589 72.1106C105.611 71.4485 107.477 70.4386 109.114 69.1499L88.5876 48.624C89.8753 47.0847 91.3516 45.7089 92.9813 44.532L113.154 64.7046C114.317 62.8934 115.166 60.861 115.62 58.6856L98.4932 41.5589C101.139 40.5528 104.006 40 107 40V34C90.458 34 77 47.458 77 64V77.9999H63.4C47.1888 78.0001 34 91.1887 34 107.4H40C40 94.4973 50.4972 84.0001 63.4 84.0001H77.9999V94.605L73.3948 89.9999H64.9098L77.6358 102.726C77.2343 104.974 76.5095 107.111 75.5135 109.089L57.4671 91.0422C55.4906 91.7613 53.6805 92.8295 52.1108 94.171L72.0792 114.139C70.7432 115.64 69.2181 116.968 67.5406 118.086L48.2698 98.8154C47.1752 100.737 46.4355 102.886 46.1422 105.173L61.8258 120.857C59.5489 121.598 57.1209 122 54.6 122V128C70.8111 128 83.9999 114.811 83.9999 98.6V85L97.9999 85.0001C114.542 85 128 71.542 128 55H122Z" fill="#FF9900"/>
</svg>
