<svg width="162" height="162" viewBox="0 0 162 162" fill="none" xmlns="http://www.w3.org/2000/svg">
<circle cx="81" cy="81" r="80" fill="white" stroke="#FF9900" stroke-width="2" stroke-linecap="round" stroke-dasharray="1 6"/>
<path d="M109.708 87.9322C105.108 83.2832 99.5802 79.9121 93.5479 77.9897C94.6039 77.2564 95.6029 76.4229 96.5319 75.4911C100.598 71.4122 102.838 65.9773 102.838 60.1875V41.4375C102.838 36.7851 99.0923 33 94.4883 33H68.5117C63.9077 33 60.1621 36.7851 60.1621 41.4375V59.9522C60.1621 67.4147 63.8782 74.0347 69.5189 77.9683C63.4606 79.8872 57.9094 83.2659 53.2917 87.9322C45.757 95.5462 41.6074 105.67 41.6074 116.438V129H121.393V116.438C121.393 105.67 117.243 95.5462 109.708 87.9322ZM65.7285 41.4375C65.7285 39.8867 66.9771 38.625 68.5117 38.625H81.5H94.4883C96.0229 38.625 97.2715 39.8867 97.2715 41.4375V44.25H89.3709C88.222 40.9766 85.1284 38.625 81.5 38.625C77.8716 38.625 74.778 40.9766 73.6291 44.25H65.7285V41.4375ZM84.2832 47.0625C84.2832 48.6133 83.0347 49.875 81.5 49.875C79.9653 49.875 78.7168 48.6133 78.7168 47.0625C78.7168 45.5117 79.9653 44.25 81.5 44.25C83.0347 44.25 84.2832 45.5117 84.2832 47.0625ZM65.7285 59.9522V49.875H73.6291C74.778 53.1484 77.8716 55.5 81.5 55.5C85.1284 55.5 88.222 53.1484 89.3709 49.875H97.2715V60.1875C97.2715 64.4668 95.6162 68.484 92.6104 71.499C89.6049 74.5134 85.6132 76.1479 81.38 76.1244C72.7496 76.0599 65.7285 68.805 65.7285 59.9522ZM81.4916 91.9288L72.5932 82.9367C75.4348 82.1644 78.4203 81.75 81.5 81.75C84.5749 81.75 87.5559 82.1631 90.3936 82.9331L81.4916 91.9288ZM108.404 112.125H102.838V117.75H97.2715V112.125H91.7051V106.5H97.2715V100.875H102.838V106.5H108.404V112.125Z" fill="#FF9900"/>
</svg>
